<?xml version="1.0" encoding="UTF-8"?>
<svg version="1.1" xmlns="http://www.w3.org/2000/svg" width="649" height="649">
<path d="M0 0 C2.37747778 1.48993962 4.24830684 2.91588021 6.25 4.88671875 C6.73726562 5.31718506 7.22453125 5.74765137 7.7265625 6.19116211 C13.21908461 11.61705196 13.94696953 17.92925353 15.125 25.32421875 C15.33640625 26.53271484 15.5478125 27.74121094 15.765625 28.98632812 C16.28108808 31.95024082 16.77513117 34.9160796 17.25 37.88671875 C17.91 37.88671875 18.57 37.88671875 19.25 37.88671875 C19.95125 38.81484375 20.6525 39.74296875 21.375 40.69921875 C24.91063284 45.07223832 28.98125495 46.35569519 34.4140625 47.23828125 C43.13234596 47.8236077 49.73901369 43.17383545 56.25 37.88671875 C64.70688179 31.6076222 72.20637785 27.89439379 82.5078125 25.69140625 C91.66645989 23.72201026 99.0967911 20.09107857 106.86157227 14.97192383 C112.03435084 11.65897367 116.3546982 10.33215448 122.57421875 11.5234375 C123.68410156 11.87019531 124.79398437 12.21695313 125.9375 12.57421875 C127.16984375 12.94675781 128.4021875 13.31929687 129.671875 13.703125 C131.80450082 14.40856782 133.92576526 15.15301608 136.015625 15.9765625 C143.8512601 19.01229832 151.46670765 19.61043086 159.80249023 19.93994141 C169.890083 20.50968686 177.23803698 24.96249057 185.4375 30.51171875 C191.59413863 34.67712454 197.67128137 37.6841738 204.9375 39.38671875 C205.97261719 39.63808594 207.00773437 39.88945312 208.07421875 40.1484375 C210.13518109 40.62755421 212.20022738 41.08954866 214.26953125 41.53125 C227.40592771 44.47531788 238.80077754 50.68715248 247.92724609 60.73291016 C250.01223612 64.12784962 248.94178784 66.44691225 248.05517578 70.16210938 C246.73828701 74.61828847 244.9776361 78.85375015 243.1875 83.13671875 C240.16229411 90.65657316 238.59745854 96.74715438 238.43359375 104.86328125 C238.06124292 110.99518633 235.99004296 116.70774284 231.375 120.88671875 C225.12554708 124.88636862 218.83801791 125.36230885 211.58984375 126.03125 C206.87252057 127.23954681 204.5417053 129.7409583 202.0625 133.859375 C199.92329393 139.36165984 198.48175518 144.90556786 197.125 150.63671875 C194.93893759 159.83180456 192.1487521 168.79366502 189.1875 177.76171875 C188.97389832 178.41910034 188.76029663 179.07648193 188.54022217 179.75378418 C187.9211022 181.6530046 187.28693188 183.54729811 186.65234375 185.44140625 C186.28616943 186.53952637 185.91999512 187.63764648 185.54272461 188.76904297 C183.76583481 193.05438438 181.61823773 196.67945017 178.125 199.76171875 C173.79572772 201.45578182 169.83451848 201.52263583 165.25 200.88671875 C160.01765297 198.52703284 157.43445238 194.60241315 154.09765625 190.12890625 C150.20686236 185.40730859 145.12085884 182.39451805 139.9375 179.26171875 C134.66246174 175.97647881 134.66246174 175.97647881 133.25 172.88671875 C132.84175726 169.02411435 133.0120479 165.60057506 134.25 161.88671875 C130.10329961 164.26300964 130.10329961 164.26300964 127.25 167.88671875 C126.69205448 173.68935219 127.73625604 176.31054207 131.25 180.88671875 C133.73572082 182.97330562 133.73572082 182.97330562 136.5625 184.82421875 C142.73586277 189.25871304 147.92402512 194.34877134 153.1730957 199.83374023 C153.77597412 200.45837158 154.37885254 201.08300293 155 201.7265625 C155.53109375 202.28722412 156.0621875 202.84788574 156.609375 203.42553711 C158.37554111 204.9985288 160.0983576 205.92578824 162.25 206.88671875 C161.7706753 211.20064101 160.5042015 213.05241422 157.25 215.88671875 C153.65813849 214.25830431 151.2970097 212.17122709 148.51953125 209.421875 C139.68718617 203.44750045 128.43477671 203.59435295 118.25 204.88671875 C111.30754988 206.2343223 104.45850773 207.95226971 97.60302734 209.68212891 C86.3690495 212.50106157 75.16745591 214.54177934 63.68847656 216.07495117 C52.9602267 217.60494756 43.12245487 220.4902978 34.25 226.88671875 C32.96879041 227.55305609 31.67605216 228.19750769 30.375 228.82421875 C26.77964296 230.55658964 23.50517301 232.5932011 20.20703125 234.8359375 C17.91582538 236.06614584 15.80701961 236.48483829 13.25 236.88671875 C12.80269531 236.29503906 12.35539063 235.70335937 11.89453125 235.09375 C8.55706761 230.73156405 5.18631095 226.72702211 1.25 222.88671875 C-3.34450476 218.02420121 -7.45187111 213.10477965 -11.05078125 207.46484375 C-12.78278815 204.83697121 -14.61574285 202.31029171 -16.47851562 199.7746582 C-29.77949 181.57345298 -32.3572174 162.89590803 -34.75 140.88671875 C-40.04572961 156.45099725 -37.87070516 174.3696109 -31.59375 189.46875 C-27.84342889 196.42114613 -22.98978532 202.63744071 -18.22412109 208.91748047 C-16.4624988 211.27078379 -14.81883167 213.69173523 -13.1875 216.13671875 C-8.26403025 223.24288542 -2.48039096 230.51312472 3.88134766 236.39501953 C5.25 237.88671875 5.25 237.88671875 5.8203125 240.7578125 C5.15077681 244.43108708 3.88512312 245.55679537 0.921875 247.72460938 C0.32890625 248.12873047 -0.2640625 248.53285156 -0.875 248.94921875 C-2.02432085 249.77220528 -3.17276232 250.59642129 -4.3203125 251.421875 C-4.88943359 251.82470703 -5.45855469 252.22753906 -6.04492188 252.64257812 C-9.61763682 255.24947322 -12.95503083 258.04758463 -16 261.26171875 C-18.51335352 263.66082893 -20.92072613 265.36491832 -23.8125 267.26171875 C-28.41346164 270.44330772 -30.75609434 272.63005836 -32.75 277.88671875 C-33.74928464 283.76548903 -32.66354314 288.03732102 -29.72265625 293.16015625 C-28.75 294.88671875 -28.75 294.88671875 -27.75 297.88671875 C-40.80067937 298.76489531 -48.81751853 294.14309398 -58.75 285.88671875 C-60.37359373 284.19064315 -61.83664853 282.4521777 -63.2890625 280.609375 C-65.55402826 277.93865334 -68.21538098 275.77062701 -70.875 273.50390625 C-73.295372 271.4163354 -75.51917766 269.17474166 -77.75 266.88671875 C-78.28238281 266.38785156 -78.81476563 265.88898438 -79.36328125 265.375 C-83.33171504 261.60014834 -86.45673753 257.65010394 -89.51171875 253.11328125 C-91.38222184 250.41688413 -93.30221147 247.78565833 -95.26953125 245.16015625 C-95.90173584 244.31485352 -96.53394043 243.46955078 -97.18530273 242.59863281 C-98.46539367 240.89141525 -99.749977 239.18755574 -101.03930664 237.48730469 C-101.63219482 236.69356445 -102.22508301 235.89982422 -102.8359375 235.08203125 C-103.3726709 234.37062988 -103.9094043 233.65922852 -104.46240234 232.92626953 C-105.75198941 230.88356753 -106.31806834 229.24807785 -106.75 226.88671875 C-107.41 226.88671875 -108.07 226.88671875 -108.75 226.88671875 C-120.30295734 204.06411911 -130.88489113 181.60433122 -137.75 156.88671875 C-137.9341748 156.23622559 -138.11834961 155.58573242 -138.30810547 154.91552734 C-143.30148703 136.31768012 -147.95355688 107.27830345 -137.9375 89.70703125 C-135.79410785 86.94358638 -133.62378054 84.69297171 -131 82.38671875 C-130.12214844 81.61457031 -129.24429688 80.84242188 -128.33984375 80.046875 C-126.13214624 78.20546214 -123.89890702 76.49568342 -121.5625 74.82421875 C-117.88403637 72.17869744 -115.18006693 69.07794481 -112.390625 65.5234375 C-110.53164812 63.66888676 -109.31253462 63.27109894 -106.75 62.88671875 C-106.36328125 63.5621875 -105.9765625 64.23765625 -105.578125 64.93359375 C-104.79695313 66.27164063 -104.79695313 66.27164063 -104 67.63671875 C-103.48953125 68.5184375 -102.9790625 69.40015625 -102.453125 70.30859375 C-99.35478727 74.99873803 -96.0583451 77.95641144 -90.75 79.88671875 C-82.60105116 80.85001302 -73.18463471 80.15161676 -66.41015625 75.1640625 C-65.30994141 74.22240234 -65.30994141 74.22240234 -64.1875 73.26171875 C-60.21752007 69.89866022 -57.14272668 68.95623707 -52.01171875 68.46875 C-48.73247067 69.07475958 -47.6877945 70.19009764 -45.75 72.88671875 C-45.26431291 75.46929443 -44.97634099 77.78766067 -44.8125 80.38671875 C-43.89853984 89.78638158 -41.96411678 98.38289823 -34.75 105.01171875 C-30.71985416 108.10602548 -27.83858283 110.05380538 -22.625 109.63671875 C-19.58056792 109.00972109 -19.58056792 109.00972109 -16.75 106.88671875 C-16.255 105.40171875 -16.255 105.40171875 -15.75 103.88671875 C-16.33007812 103.8609375 -16.91015625 103.83515625 -17.5078125 103.80859375 C-25.04717176 103.26118153 -29.69746212 100.5606373 -34.75 94.88671875 C-37.46099787 88.52267742 -38.02351722 81.78482543 -38.43359375 74.953125 C-38.75859767 71.80339567 -39.46689839 68.99731759 -40.3125 65.94921875 C-44.75778738 47.59590353 -42.07860649 27.09279121 -32.515625 10.78125 C-25.21419504 -0.1503853 -12.66023479 -5.1252371 0 0 Z " fill="#FEFEFE" transform="translate(248.75,174.11328125)"/>
<path d="M0 0 C1.06855225 -0.00200912 1.06855225 -0.00200912 2.15869141 -0.00405884 C12.87966812 0.00030687 23.18338094 0.64969703 33.69482422 2.85742188 C35.60764809 3.23426833 37.54090544 3.50247628 39.47265625 3.765625 C63.71655621 7.27560018 88.30681747 19.46644183 107.6875 34.25 C108.66976563 34.98089844 109.65203125 35.71179687 110.6640625 36.46484375 C112.73524669 38.00923791 114.80180328 39.55986099 116.86328125 41.1171875 C119.2316022 42.90571204 121.61314779 44.67390707 124 46.4375 C125.23243379 47.37070089 126.46179752 48.30797539 127.6875 49.25 C128.25726563 49.683125 128.82703125 50.11625 129.4140625 50.5625 C134.05093267 54.28893447 137.59915422 58.67630037 141.29296875 63.3203125 C143.69744187 66.26216379 146.22035892 69.03548695 148.8125 71.8125 C156.19954962 79.87421823 161.69416707 88.55634146 166.6875 98.25 C166.9983252 98.84586914 167.30915039 99.44173828 167.62939453 100.05566406 C175.62038019 115.41303464 181.56871722 130.18960071 184.6875 147.25 C184.90325684 148.41789063 185.11901367 149.58578125 185.34130859 150.7890625 C193.70439411 196.88205991 193.70439411 196.88205991 184.484375 213.40625 C181.68084802 217.02599369 178.31526795 219.81066438 173.74243164 220.57519531 C166.80760799 220.97712514 163.4858375 218.54773667 158.375 214.125 C156.8883218 212.9202528 155.39612059 211.72228872 153.8984375 210.53125 C153.17881836 209.95890625 152.45919922 209.3865625 151.71777344 208.796875 C142.60837088 201.85637781 132.40309747 199.61492228 121.29296875 197.875 C110.37609119 195.93062107 100.51242144 189.44553631 91.48168945 183.27124023 C84.67162226 178.68416412 78.59616985 177.93565678 70.625 177.375 C60.99649039 176.5764289 52.61992851 174.51388645 43.5859375 171.06640625 C35.96189282 168.27735699 30.01839634 167.12985628 22.30078125 170.19921875 C18.72305666 171.93334935 15.31573138 173.85858415 11.94140625 175.9609375 C4.00436192 180.68807184 -3.49169399 182.76422902 -12.53417969 184.4765625 C-20.63605508 186.05938878 -25.92955174 188.92396849 -32.3125 194.25 C-34.1357251 195.63837543 -35.96927359 197.0132906 -37.8125 198.375 C-38.7303125 199.05820313 -39.648125 199.74140625 -40.59375 200.4453125 C-45.68239163 203.82311772 -49.19944603 204.65315407 -55.1640625 203.78125 C-58.41784732 202.97667775 -60.085293 201.73923136 -62.3125 199.25 C-64.83035844 194.79532737 -65.73392276 190.44181625 -66.75 185.4375 C-69.0862539 174.25431509 -71.62442185 166.94115352 -81.3125 160.25 C-88.44401784 155.9205261 -94.98612179 153.96901874 -103.3125 155.25 C-112.55453093 157.61262445 -121.03683128 163.26223999 -126.265625 171.3203125 C-131.83746719 181.59079772 -136.17132255 194.06846247 -136.62890625 205.76953125 C-136.69174805 207.3019043 -136.69174805 207.3019043 -136.75585938 208.86523438 C-136.79517578 209.92033203 -136.83449219 210.97542969 -136.875 212.0625 C-136.93977539 213.67415039 -136.93977539 213.67415039 -137.00585938 215.31835938 C-137.11160983 217.96212082 -137.21370233 220.6059711 -137.3125 223.25 C-138.36824219 223.69601563 -139.42398438 224.14203125 -140.51171875 224.6015625 C-143.43291532 225.85402828 -146.29004654 227.18579024 -149.125 228.625 C-149.96804687 229.05039063 -150.81109375 229.47578125 -151.6796875 229.9140625 C-152.54851562 230.35492188 -153.41734375 230.79578125 -154.3125 231.25 C-156.12402499 232.16859199 -157.93649761 233.08531803 -159.75 234 C-160.95462891 234.61101562 -160.95462891 234.61101562 -162.18359375 235.234375 C-167.38988493 237.71811024 -172.73582437 238.28186743 -178.31640625 236.671875 C-182.97605198 234.45778848 -184.68492933 231.34219565 -186.5859375 226.6640625 C-191.10511108 211.64874382 -187.72352502 195.90240488 -180.55859375 182.30078125 C-179.26516631 180.17209973 -177.81318277 178.23619778 -176.3125 176.25 C-175.36282282 174.54713058 -174.41326072 172.84419662 -173.46484375 171.140625 C-172.287437 169.20887969 -170.97737723 167.51380359 -169.5625 165.75 C-159.27063114 152.15647898 -153.83546931 135.56176843 -148.01953125 119.73046875 C-145.27119723 112.31889651 -142.07895419 105.13243997 -138.8125 97.9375 C-138.34924316 96.91019775 -137.88598633 95.88289551 -137.40869141 94.82446289 C-134.74166459 89.01533624 -131.86210208 83.56561698 -128.3125 78.25 C-127.58160156 77.11884766 -127.58160156 77.11884766 -126.8359375 75.96484375 C-126.06758968 74.77573404 -125.29673545 73.58824027 -124.5234375 72.40234375 C-123.17827459 70.12188228 -123.17827459 70.12188228 -122.0078125 66.98828125 C-120.20852301 62.70428579 -117.61845312 59.17953418 -114.8125 55.5 C-114.28712646 54.80479248 -113.76175293 54.10958496 -113.22045898 53.39331055 C-108.3922288 47.12796079 -103.06084217 41.67142224 -97.3125 36.25 C-96.46816406 35.40050781 -95.62382812 34.55101562 -94.75390625 33.67578125 C-69.6416513 8.72424473 -34.41305874 0.03817723 0 0 Z " fill="#FEFEFE" transform="translate(336.3125,9.75)"/>
<path d="M0 0 C3.36862648 2.43397867 6.19206924 5.06913139 8.96484375 8.15234375 C12.31517154 11.65706452 16.06995205 13.60909628 20.33984375 15.77734375 C35.36321178 23.52200464 43.41277944 36.11157716 51.90234375 50.40234375 C55.28777432 56.04238679 59.18429972 61.03628679 63.33105469 66.11938477 C70.78889004 75.27464227 77.50514125 84.67461399 83.21142578 95.02197266 C84.81652834 97.92695324 86.44868199 100.62806467 88.52734375 103.21484375 C98.92034458 117.31713107 101.22384508 137.37470949 101.40234375 154.27734375 C101.42087402 155.33147461 101.4394043 156.38560547 101.45849609 157.47167969 C101.32243605 175.02075717 95.6575475 191.42398463 89.83984375 207.77734375 C88.59357735 211.31713771 87.3536478 214.85911337 86.1171875 218.40234375 C85.82588959 219.23576797 85.53459167 220.0691922 85.23446655 220.9278717 C82.37739678 229.16818214 80.02014892 237.4008202 78.52734375 246 C77.90234375 247.77734375 77.90234375 247.77734375 74.90234375 249.77734375 C72.76098633 250.35571289 72.76098633 250.35571289 70.296875 250.8125 C69.39517578 250.98201172 68.49347656 251.15152344 67.56445312 251.32617188 C66.62408203 251.49568359 65.68371094 251.66519531 64.71484375 251.83984375 C63.79380859 252.01322266 62.87277344 252.18660156 61.92382812 252.36523438 C34.12247149 257.51509533 -4.2722242 257.52684668 -28.84765625 241.46484375 C-29.59015625 240.90796875 -30.33265625 240.35109375 -31.09765625 239.77734375 C-30.59921721 234.93107497 -29.69900607 231.43761265 -27.28515625 227.21484375 C-26.65867187 226.09335937 -26.0321875 224.971875 -25.38671875 223.81640625 C-24.84966309 222.86942871 -24.84966309 222.86942871 -24.30175781 221.90332031 C-4.96516545 191.11816607 -4.96516545 191.11816607 -0.578125 156.3984375 C-1.7934187 152.65385233 -3.00500043 150.42855932 -6.4375 148.3828125 C-8.42517963 147.56756393 -10.43587293 146.8072098 -12.4609375 146.08984375 C-16.76106947 144.53791642 -20.84257906 142.66686138 -24.97265625 140.71484375 C-25.68574951 140.38605225 -26.39884277 140.05726074 -27.13354492 139.71850586 C-31.38813986 137.72271405 -35.22722317 135.46783626 -39.09765625 132.77734375 C-39.94328125 132.30296875 -40.78890625 131.82859375 -41.66015625 131.33984375 C-45.12408719 129.1193752 -47.7587442 126.25680457 -50.51171875 123.21484375 C-62.32394882 110.64616545 -76.64776305 103.77280518 -93.41015625 100.77734375 C-102.05543945 99.21783802 -110.04411646 97.31444011 -118.18432617 93.9609375 C-120.2040267 93.14039714 -122.25654222 92.39796689 -124.32836914 91.71972656 C-129.7266434 89.88270473 -133.91259955 85.91044581 -136.66015625 80.96484375 C-137.50444955 74.81356402 -137.25694871 69.76987767 -134.09765625 64.33984375 C-125.57339407 57.05870314 -112.78435194 56.97621247 -102.09765625 57.77734375 C-99.00106975 58.20168565 -95.92709302 58.74410395 -92.84765625 59.27734375 C-84.71423732 60.6358282 -76.71695395 61.13991688 -68.47265625 61.21484375 C-66.85568848 61.24771484 -66.85568848 61.24771484 -65.20605469 61.28125 C-55.84435352 61.25801276 -47.39748312 58.79970092 -40.09765625 52.77734375 C-38.93300403 50.21543295 -38.93300403 50.21543295 -38.09765625 47.77734375 C-38.74992188 48.12667969 -39.4021875 48.47601563 -40.07421875 48.8359375 C-40.94820312 49.29097656 -41.8221875 49.74601562 -42.72265625 50.21484375 C-43.58117187 50.66730469 -44.4396875 51.11976563 -45.32421875 51.5859375 C-51.16265166 54.09399671 -57.16107021 53.96955782 -63.41015625 53.96484375 C-64.31805908 53.96548828 -65.22596191 53.96613281 -66.16137695 53.96679688 C-73.40582848 53.91278419 -80.57094012 53.4132758 -87.78515625 52.77734375 C-112.03904368 49.74651981 -112.03904368 49.74651981 -134.53515625 56.40234375 C-140.0003918 61.10630948 -142.96536177 65.9544184 -144.03515625 73.08984375 C-144.77647246 77.51733783 -144.77647246 77.51733783 -147.72265625 79.90234375 C-153.07747461 81.29062999 -157.11187156 81.50291893 -162.34765625 79.58984375 C-165.92303566 77.23334368 -168.57010784 75.2080107 -169.515625 70.8515625 C-169.77504515 67.12853282 -169.4981685 65.31136009 -167.22265625 62.27734375 C-166.20052204 61.42016492 -165.15439681 60.5914772 -164.09765625 59.77734375 C-163.27652344 59.09027344 -162.45539063 58.40320313 -161.609375 57.6953125 C-154.44770003 51.77734375 -154.44770003 51.77734375 -152.09765625 51.77734375 C-151.845 51.19339844 -151.59234375 50.60945313 -151.33203125 50.0078125 C-146.75326165 41.7341497 -136.75653005 36.77669505 -128.92822266 31.92724609 C-127.12621934 30.79528615 -125.34985628 29.63180401 -123.578125 28.453125 C-115.69258092 23.22334556 -107.68252977 18.77324751 -99.09765625 14.77734375 C-98.07297241 14.27279663 -98.07297241 14.27279663 -97.02758789 13.75805664 C-91.47282809 11.11678998 -86.21626609 9.79686554 -80.16015625 8.83984375 C-78.21330873 8.5078736 -76.26670367 8.17447918 -74.3203125 7.83984375 C-73.30598145 7.66839844 -72.29165039 7.49695313 -71.24658203 7.3203125 C-65.85159831 6.39005635 -60.47442548 5.36950584 -55.09765625 4.33984375 C-54.01307129 4.13343262 -52.92848633 3.92702148 -51.81103516 3.71435547 C-43.6169262 2.13080509 -35.4840198 0.3315836 -27.38867188 -1.69897461 C-18.49705075 -3.84156513 -8.22818691 -4.79594507 0 0 Z " fill="#FEFEFE" transform="translate(392.09765625,388.22265625)"/>
<path d="M0 0 C6.36282486 0.44914058 12.15049396 1.69082448 18.25 3.5 C25.0630112 5.50069265 25.0630112 5.50069265 32 7 C25.93710707 19.82657559 12.76708051 36.52424167 0 43 C-4.42063778 44.21471438 -7.98230989 44.3648323 -12.3125 42.8125 C-13.199375 42.214375 -14.08625 41.61625 -15 41 C-15.804375 40.46375 -16.60875 39.9275 -17.4375 39.375 C-19.55613001 36.15468239 -19.09384612 34.21042012 -18.59936523 30.48291016 C-17.55073969 26.13890943 -15.2495541 22.69786065 -12.8125 19 C-12.31508301 18.21761963 -11.81766602 17.43523926 -11.30517578 16.62915039 C-9.88697435 14.40791842 -8.44758328 12.20215777 -7 10 C-5.99646484 8.45119141 -5.99646484 8.45119141 -4.97265625 6.87109375 C-1.34433411 1.34433411 -1.34433411 1.34433411 0 0 Z " fill="#FEFEFE" transform="translate(266,489)"/>
<path d="M0 0 C6.24794396 1.52508868 15.30678714 5.10148434 18.7578125 10.66796875 C18.96148437 11.25191406 19.16515625 11.83585937 19.375 12.4375 C9.375 22.4375 9.375 22.4375 6.75390625 24.9921875 C4.6127411 27.19312245 2.80830735 29.40070629 1 31.875 C-3.89532765 38.24316433 -8.82769097 42.9312221 -16.625 45.4375 C-22.73360266 46.08051081 -26.59649021 44.65840718 -31.5 41.0625 C-33.10208204 38.74838149 -32.96914784 37.19068269 -32.625 34.4375 C-30.625 31.4375 -30.625 31.4375 -27.625 30.4375 C-22.79345398 25.2724153 -18.61837058 19.49002916 -14.5 13.75 C-13.20990013 11.97802489 -11.91830091 10.20714014 -10.625 8.4375 C-10.03976562 7.61121094 -9.45453125 6.78492188 -8.8515625 5.93359375 C-4.72917768 0.57076282 -4.72917768 0.57076282 0 0 Z " fill="#FEFEFE" transform="translate(307.625,497.5625)"/>
<path d="M0 0 C6.54218297 3.13969458 11.97293261 7.95939891 16 14 C11.25 18 11.25 18 9 18 C8.74347656 18.60457031 8.48695313 19.20914063 8.22265625 19.83203125 C5.79892433 24.12970286 1.34843889 26.2525838 -3.24609375 27.71484375 C-7.866141 28.55558025 -10.55153987 28.04547532 -14.5625 25.5625 C-15.724853 24.73095312 -16.87717141 23.88418927 -18 23 C-17.8125 20.75 -17.8125 20.75 -17 18 C-15.34211215 16.65576661 -13.67423683 15.32381517 -12 14 C-11.07019192 12.30069557 -10.14198209 10.6002416 -9.24609375 8.8828125 C-6.85355712 5.26775715 -3.36151639 2.6843177 0 0 Z " fill="#FEFEFE" transform="translate(330,512)"/>
</svg>
