<?xml version="1.0" ?><!DOCTYPE svg  PUBLIC '-//W3C//DTD SVG 1.1//EN'  'http://www.w3.org/Graphics/SVG/1.1/DTD/svg11.dtd'><svg enable-background="new 0 0 512 512" height="512px" version="1.1" viewBox="0 0 512 512" width="512px" xml:space="preserve" xmlns="http://www.w3.org/2000/svg" xmlns:xlink="http://www.w3.org/1999/xlink"><g id="Layer_1"/><g id="Layer_2"/><g id="Layer_3"><path d="M232.035,348.436c-84.624-83.22-90.875-214.311-18.779-304.617c-29.909,11.201-57.955,28.641-82.051,52.338   c-91.39,89.871-91.39,235.582,0,325.453s239.564,89.871,330.953,0c6.766-6.652,13.016-13.617,18.779-20.836   C397.408,432.053,299.329,414.612,232.035,348.436z" fill="#FAFAFA"/><path d="   M212.035,328.436c-84.624-83.22-90.875-214.311-18.779-304.617c-29.909,11.201-57.955,28.641-82.051,52.338   c-91.39,89.871-91.39,235.582,0,325.453s239.564,89.871,330.953,0c6.766-6.652,13.016-13.617,18.779-20.836   C377.408,412.053,279.329,394.612,212.035,328.436z" fill="none" stroke="#0D2F55" stroke-linecap="round" stroke-linejoin="round" stroke-miterlimit="10" stroke-width="10"/><g><g><path d="M340.366,107.767c-1.411-4.979-8.237-5.646-9.925,0c-1.557,5.211-3.409,9.312-8.762,14.659     c-5.353,5.351-15.126,9.866-17.767,9.866c-5.06,0-4.139,9.798,0,9.925c4.139,0.126,11.037,1.471,16.139,6.571     c5.104,5.105,9.513,13.871,10.38,17.174c0.867,3.306,7.752,3.949,9.067-0.874c1.315-4.827,5.871-11.346,10.822-16.3     c4.951-4.95,12.033-8.336,14.607-8.151c2.578,0.185,6.121-8.249,0-9.925c-6.119-1.675-11.475-2.55-15.259-6.333     C345.888,120.597,342.087,113.832,340.366,107.767z" fill="#FAFAFA"/></g><g><path d="M424.233,171.309c-0.968-3.414-5.648-3.871-6.806,0c-1.067,3.572-2.337,6.384-6.007,10.051     c-3.671,3.669-10.372,6.765-12.183,6.765c-3.469,0-2.838,6.719,0,6.806c2.838,0.086,7.568,1.008,11.065,4.506     c3.5,3.5,6.523,9.511,7.117,11.775c0.595,2.267,5.315,2.708,6.218-0.6c0.901-3.31,4.025-7.779,7.42-11.176     c3.396-3.395,8.251-5.716,10.017-5.59c1.768,0.127,4.196-5.655,0-6.805c-4.196-1.148-7.868-1.748-10.463-4.343     C428.019,180.105,425.413,175.467,424.233,171.309z" fill="#FAFAFA"/></g></g><g><g><path d="M315.305,111.434c2.13,3.866,4.663,7.385,7.295,10.018c2.217,2.216,4.66,3.781,7.171,4.96     c-2.456,1.654-4.714,3.5-6.522,5.308c-2.752,2.754-5.811,6.365-8.372,10.266c-2.168-3.644-4.837-7.351-7.754-10.268     c-2.316-2.316-4.822-4.072-7.319-5.401c3.464-2.116,6.666-4.537,8.945-6.815C311.566,116.684,313.67,114.039,315.305,111.434      M315.311,93.778c-2.029,0-4.052,1.254-4.869,3.988c-1.557,5.211-3.409,9.312-8.762,14.659     c-5.353,5.351-15.126,9.866-17.767,9.866c-5.06,0-4.139,9.798,0,9.925c4.139,0.126,11.037,1.471,16.139,6.571     c5.104,5.105,9.513,13.871,10.38,17.174c0.428,1.629,2.317,2.612,4.28,2.612c2.021,0,4.12-1.04,4.787-3.486     c1.315-4.827,5.871-11.346,10.822-16.3c4.822-4.821,11.666-8.158,14.397-8.158c0.073,0,0.143,0.002,0.21,0.007     c0.028,0.002,0.056,0.003,0.084,0.003c2.569,0,5.971-8.271-0.084-9.928c-6.119-1.675-11.475-2.55-15.259-6.333     c-3.782-3.782-7.583-10.547-9.304-16.612C319.639,95.199,317.471,93.778,315.311,93.778L315.311,93.778z" fill="#0D2F55"/></g><g><path d="M400.555,176.219c0.954,1.322,1.96,2.524,2.986,3.551c0.534,0.534,1.083,1.021,1.643,1.466     c-0.422,0.377-0.822,0.755-1.198,1.131c-0.683,0.683-1.954,2.011-3.387,3.774c-0.995-1.343-2.075-2.628-3.223-3.775     c-0.542-0.541-1.096-1.044-1.658-1.51c1.031-0.804,1.97-1.621,2.771-2.422C399.242,177.681,399.929,176.943,400.555,176.219      M400.767,158.574c-1.392,0-2.778,0.859-3.339,2.734c-1.067,3.572-2.337,6.384-6.007,10.051     c-3.671,3.669-10.372,6.765-12.183,6.765c-3.469,0-2.838,6.719,0,6.806c2.838,0.086,7.568,1.008,11.065,4.506     c3.5,3.5,6.523,9.511,7.117,11.775c0.293,1.117,1.589,1.791,2.936,1.791c1.385,0,2.824-0.713,3.282-2.391     c0.901-3.31,4.025-7.779,7.42-11.176c3.308-3.307,8-5.595,9.873-5.595c0.05,0,0.098,0.002,0.144,0.005     c0.02,0.001,0.038,0.002,0.058,0.002c1.762,0,4.094-5.67-0.058-6.807c-4.196-1.148-7.868-1.748-10.463-4.343     c-2.594-2.593-5.199-7.231-6.379-11.39C403.734,159.548,402.248,158.574,400.767,158.574L400.767,158.574z" fill="#0D2F55"/></g></g></g></svg>

