<!DOCTYPE svg PUBLIC "-//W3C//DTD SVG 1.1//EN" "http://www.w3.org/Graphics/SVG/1.1/DTD/svg11.dtd">
<!-- Uploaded to: SVG Repo, www.svgrepo.com, Transformed by: SVG Repo Mixer Tools -->
<svg width="64px" height="64px" viewBox="0 0 48 48" enable-background="new 0 0 48 48" id="Layer_3" version="1.1" xml:space="preserve" xmlns="http://www.w3.org/2000/svg" xmlns:xlink="http://www.w3.org/1999/xlink" fill="#FFFFFF">
<g id="SVGRepo_bgCarrier" stroke-width="0"/>
<g id="SVGRepo_tracerCarrier" stroke-linecap="round" stroke-linejoin="round"/>
<g id="SVGRepo_iconCarrier">
<path d="M46.25,0H2.875H0v8v32h20v8h20v-8h8V8V0H46.25z M36,3c1.104,0,2,0.896,2,2s-0.896,2-2,2s-2-0.896-2-2 S34.896,3,36,3z M6,3h24c1.104,0,2,0.896,2,2s-0.896,2-2,2H6C4.896,7,4,6.104,4,5S4.896,3,6,3z M30,46.594c-1.104,0-2-0.896-2-2 s0.896-2,2-2s2,0.896,2,2S31.104,46.594,30,46.594z M36,40.969H24V40v-4V18.083h12V36v4V40.969z M44,36h-4V14.083H20V36H4V10h40V36z M42,7c-1.104,0-2-0.896-2-2s0.896-2,2-2s2,0.896,2,2S43.104,7,42,7z" fill="#241F20"/>
</g>
</svg>